# xmcd
#
# Track frame offsets: 
#        150
#        25327
#        57412
#        69425
#        79767
#        92467
#        107277
#        124350
#        154425
#        168795
#        182925
#        196350
#        202652
#        216525
#        250500
#        265310
#        277737
#        295527
#        305525
#
# Disc length: 4218 seconds
#
# Revision: 4
# Processed by: cddbd v1.5.2PL0 Copyright (c) Steve Scherf et al.
# Submitted via: ExactAudioCopy v1.3
#
DISCID=07107813
DTITLE=Sutherland, Caballe, Pavarotti, Ghiaurov - (...) Zubin Mehta - D
DTITLE=ecca Sound 39 - Puccini - HIghlights from 'Turandot'
DYEAR=1972
DGENRE=Opera
TTITLE0=Atto primo - Popolo di Pekino
TTITLE1=Atto primo - Gira la cote
TTITLE2=Atto primo - Signore, ascolta
TTITLE3=Atto primo - Non piangere, Liu
TTITLE4=Atto primo - Ah, per l'ultima volta
TTITLE5=Atto secondo - Ola, Pang. Ola, Pang
TTITLE6=Atto secondo - Ho una casa nell'Honan
TTITLE7=Atto secondo - In questa Reggia
TTITLE8=Atto secondo - Gelo che ti da foco
TTITLE9=Atto secondo - Figlio del Cielo
TTITLE10=Atto terzo - Nessun dorma
TTITLE11=Atto terzo - Quel nome
TTITLE12=Atto terzo - Tanto amore segreto
TTITLE13=Atto terzo - Tu che di gel sei cinta
TTITLE14=Atto terzo - Principessa di morte
TTITLE15=Atto terzo - Che e mai di me
TTITLE16=Atto terzo - Del primo Pianto
TTITLE17=Atto terzo - So il tuo nome
TTITLE18=Atto terzo - Diecimila anni al nostro Imperatore
EXTD=
EXTT0=
EXTT1=
EXTT2=
EXTT3=
EXTT4=
EXTT5=
EXTT6=
EXTT7=
EXTT8=
EXTT9=
EXTT10=
EXTT11=
EXTT12=
EXTT13=
EXTT14=
EXTT15=
EXTT16=
EXTT17=
EXTT18=
PLAYORDER=
